<svg version="1.1" id="Capa_1" xmlns="http://www.w3.org/2000/svg" xmlns:xlink="http://www.w3.org/1999/xlink" x="0px" y="0px"
	 width="197.259px" height="197.259px" viewBox="0 0 197.259 197.259" style="enable-background:new 0 0 197.259 197.259;"
	 xml:space="preserve">
<g>
	<g>
		<path d="M43.545,127.913c-0.405,0.074-0.73,0.239-1.011,0.446c-11.271-3.127-21.052,1.617-27.707,9.767
			c-0.057-0.064-0.122-0.123-0.179-0.188c-0.562-0.652-1.718,0.229-1.198,0.925c0.136,0.182,0.289,0.344,0.427,0.525
			c-13.54,18.106-12.452,50.728,19.344,54.488C74.494,198.758,82.901,120.72,43.545,127.913z M45.418,134.077
			c0.214,0.02,0.405-0.023,0.596-0.069c5.625,1.403,10.437,2.699,14.028,8.136c1.761,2.666,2.66,5.78,3.003,8.988
			c-0.844-0.924-2.089-1.485-3.198-2.177c-2.455-1.53-4.855-3.148-7.229-4.801c-4.328-3.012-8.018-6.416-11.863-9.96
			c-0.15-0.139-0.319-0.162-0.483-0.222C41.955,133.889,43.673,133.917,45.418,134.077z M11.511,164.004
			c3.835,5.061,7.956,9.9,12.369,14.462c2.805,2.9,5.98,6.196,9.445,8.954C19.494,186.861,11.574,176.271,11.511,164.004z
			 M39.729,186.941c-4.286-3.781-9.192-7.039-13.308-11.018c-5.2-5.026-9.81-10.6-14.632-15.976
			c0.194-1.453,0.459-2.912,0.873-4.371c0.165-0.582,0.367-1.131,0.558-1.689c6.165,6.619,12.265,13.281,18.784,19.567
			c3.238,3.122,8.766,9.449,14.196,11.126C44.168,185.612,42.039,186.473,39.729,186.941z M50.603,181.793
			c-0.213-0.131-0.445-0.234-0.712-0.271c-7.049-0.941-14.497-9.755-19.369-14.265c-5.568-5.151-10.885-10.563-16.35-15.823
			c1.093-2.511,2.526-4.692,4.128-6.684c4.433,4.965,9.334,9.429,14.549,13.684c7.303,5.961,14.942,13.216,23.219,17.76
			C54.469,178.288,52.653,180.192,50.603,181.793z M57.986,173.4c-5.042-5.688-12.603-9.742-18.699-14.11
			c-6.906-4.949-13.666-10.166-19.705-16.137c1.608-1.724,3.411-3.212,5.368-4.465c11.733,9.438,22.123,22.781,35.851,28.976
			C60.032,169.665,59.095,171.592,57.986,173.4z M61.959,164.12c-6.609-4.738-13.4-9.02-19.731-14.244
			c-5.112-4.218-10.198-8.365-15.635-12.112c3.742-2.062,7.989-3.259,12.495-3.647c-0.387,0.292-0.648,0.771-0.526,1.354
			c0.948,4.549,7.367,8.468,10.725,11.103c2.464,1.933,4.994,3.781,7.558,5.581c1.766,1.24,3.532,3.021,5.808,2.539
			c0.205-0.043,0.38-0.144,0.542-0.259c-0.004,2.187-0.201,4.363-0.535,6.417C62.48,161.955,62.245,163.045,61.959,164.12z"/>
		<path d="M131.731,145.798c0.805-0.676,1.251-1.822,0.614-2.865c-0.641-1.05-1.366-2.024-2.046-3.037
			c-9.9-35.505-45.371-67.849-80.281-76.234c-14.283-3.431-31.464-1.034-38.576,13.184c-5.876,11.747,2.869,20.537,12.881,24.175
			c-0.142,1.166,0.701,2.587,2.086,2.689c15.182,1.124,29.411,5.577,40.69,13.612c2.793,2.332,5.552,4.703,8.257,7.135
			c6.815,7.086,11.887,16.001,14.428,26.91c3.186,13.678,5.389,30.104,14.188,41.546c5.215,6.78,13.115,5.054,17.946-1.235
			C132.481,177.924,135,162.456,131.731,145.798z M55.334,72.322c15.308,4.591,28.756,15.079,40.129,25.922
			c7.09,6.761,13.699,14.725,18.956,23.37c-21.817-20.078-51.047-33.294-73.462-52.28C45.845,69.674,50.691,70.93,55.334,72.322z
			 M35.21,69.397c0.674-0.071,1.348-0.101,2.023-0.127c25.378,26.771,59.95,41.939,85.122,68.972
			c1.594,4.596,2.735,9.28,3.278,14.001c-11.761-15.272-28.765-28.161-43.225-40.134c-17.648-14.61-36.95-28.446-57.575-38.501
			c-0.144-0.07-0.282-0.092-0.42-0.114C27.292,71.375,30.972,69.843,35.21,69.397z M34.077,99.011
			c-0.064-1.367-0.764-2.646-2.315-2.861c-10.451-1.446-14.384-6.713-13.917-12.205c9.061,4.887,17.873,10.266,26.396,16.091
			C40.812,99.421,37.4,99.052,34.077,99.011z M118.042,185.938c-9.342,14.705-16.614-15.063-18.225-21.192
			c-0.117-0.449-0.203-0.909-0.317-1.358c5.896,7.252,12.305,14.069,18.266,21.271c0.216,0.261,0.455,0.434,0.701,0.542
			C118.317,185.445,118.198,185.693,118.042,185.938z M120.506,181.574c-6.66-7.377-13.681-14.42-20.487-21.66
			c-0.452-0.48-0.977-0.509-1.396-0.293c-1.218-5.284-2.324-10.609-3.694-15.854c9.937,10.759,19.042,22.253,27.197,34.359
			C121.638,179.281,121.086,180.43,120.506,181.574z M123.594,174.23c-9.074-14.317-19.812-27.785-31.821-40.12
			c-6.066-14.377-20.439-25.45-36.176-31.046c-11.815-8.444-24.245-15.885-37.05-22.146c0.823-2.203,2.325-4.322,4.335-6.148
			c-0.018,0.408,0.146,0.823,0.628,1.103c19.812,11.516,38.007,24.859,55.644,39.491c16.472,13.666,30.699,29.814,46.881,43.612
			C126,164.08,125.24,169.19,123.594,174.23z"/>
		<path d="M189.373,134.143c-8.445-57.083-43.292-103.71-97.622-123.628C73.255,3.734,41.667-8.703,26.023,9.376
			C18.459,18.118,14.932,39,28.428,41.864c0.173,0.367,0.469,0.684,0.921,0.84c18.982,6.571,39.603,6.186,58.833,12.398
			c23.436,7.57,40.764,30.009,49.929,51.794c9.452,22.467,4.134,46.439,9.782,69.614c3.715,15.238,15.852,20.506,29.725,14.085
			C196.286,181.956,191.657,149.583,189.373,134.143z M148.705,57.217c0.368,0.435,0.692,0.914,1.055,1.356
			c-9.715-9.121-20.562-17.398-30.11-26.649C130.357,38.752,140.094,47.03,148.705,57.217z M109.472,26.01
			c7.217,9.379,15.65,17.572,24.286,25.645c9.75,9.116,18.812,19.001,28.583,28.044c0.49,0.453,1.078,0.609,1.652,0.576
			c1.325,2.525,2.599,5.085,3.791,7.682c-27.422-21.228-51.455-45.605-76.097-69.916C97.866,20.361,103.781,23.027,109.472,26.01z
			 M85.699,15.851c0.575,0.193,1.123,0.422,1.694,0.62c25.062,29.555,52.933,57.322,84.153,80.325
			c1.071,2.727,2.098,5.465,3.032,8.218c-13.632-19.399-37.901-33.282-55.528-47.923C100.412,41.61,80.906,20.116,58.916,8.294
			C68.065,9.799,77.231,13.013,85.699,15.851z M35.018,39.818c0.452-1.852-0.527-4.097-3.018-4.129
			c-7.678-0.098-6.647-7.743-4.767-13.489c8.925,6.653,18.209,12.799,27.282,19.251C48.092,40.627,41.58,40.077,35.018,39.818z
			 M62.663,42.685C52.497,33.465,39.596,27.417,28.08,20.12c-0.032-0.02-0.06-0.019-0.092-0.036
			c0.577-1.489,1.139-2.724,1.489-3.439c1.203-2.453,2.905-4.239,4.883-5.593c17.392,13.029,35.378,25.253,52.91,38.076
			C79.429,46.269,71.168,44.169,62.663,42.685z M131.561,81.276c-8.635-11.806-19.554-20.508-31.946-26.799
			C79.564,38.882,58.492,24.282,37.068,9.528c3.429-1.505,7.397-2.041,11.305-2.106c1.796-0.03,3.604,0.064,5.417,0.22
			c38.022,38.29,85.732,66.492,122.355,106.335c0.417,0.454,0.909,0.566,1.372,0.495c0.284,1.006,0.604,2.015,0.87,3.02
			c1.765,6.661,3.558,14.159,4.726,21.856C167.852,117.466,150.435,98.508,131.561,81.276z M154.64,174.648
			c-1.457-4.234-2.189-8.728-2.612-13.265c1.896,2.225,3.831,4.41,5.744,6.617c5.1,5.886,10.536,11.559,16.061,17.045
			C166.606,189.359,157.581,183.189,154.64,174.648z M179.153,179.118c-0.618,1.157-1.297,2.111-1.999,2.977
			c-5.566-5.589-11.409-10.905-17.022-16.45c-2.57-2.539-5.261-5.57-8.363-7.589c-0.2-3.124-0.301-6.244-0.424-9.29
			c-0.009-0.222-0.021-0.43-0.031-0.649c4.611,4.408,9.146,8.854,13.424,13.612c5.033,5.594,9.317,11.838,14.426,17.37
			C179.161,179.104,179.158,179.111,179.153,179.118z M181.16,174.615c-8.051-10.932-18.973-21.212-29.971-29.096
			c-0.263-5.533-0.646-10.757-1.278-15.878c5.556,5.947,10.938,12.046,16.307,18.167c4.822,5.497,10.554,14.259,17.357,17.583
			C183.051,168.574,182.282,171.672,181.16,174.615z M184.232,159.652c-3.842-4.673-9.453-8.786-13.481-12.775
			c-7.152-7.082-14.191-14.28-21.413-21.291c-1.295-8.365-3.404-16.563-7.127-25.413c-0.482-1.144-1.023-2.212-1.536-3.316
			c13.63,16.405,26.116,33.909,42.474,47.02c0.184,0.147,0.393,0.219,0.605,0.259C184.334,149.337,184.577,154.572,184.232,159.652z
			"/>
	</g>
</g>
<g>
</g>
<g>
</g>
<g>
</g>
<g>
</g>
<g>
</g>
<g>
</g>
<g>
</g>
<g>
</g>
<g>
</g>
<g>
</g>
<g>
</g>
<g>
</g>
<g>
</g>
<g>
</g>
<g>
</g>
</svg>
